# xmcd CD database file
#
# Track frame offsets:
#	150
#	9746
#	23106
#	36117
#	47639
#	59371
#	74048
#	83414
#	98885
#	111915
#	121825
#	134646
#	147936
#	160320
#	182757
#	195523
#
# Disc length: 2731 seconds
#
# Revision: 0
# Processed by: cddbd v1.5.2PL0 Copyright (c) Steve Scherf et al.
# Submitted via: CDex 1.70beta2
#
DISCID=df0aa910
DTITLE=Joe Cuba Sextet - Boogaloo - the very best of Joe Cuba Sextet
DYEAR=2005
DGENRE=Salsa
TTITLE0=Mambo of the times
TTITLE1=Cachondea
TTITLE2=Picando de vicio
TTITLE3=Callejero
TTITLE4=Mujer
TTITLE5=This is love
TTITLE6=Llegue
TTITLE7=Te adoro
TTITLE8=Salsa y bembe
TTITLE9=Yo vine pa ver
TTITLE10=Rosalia
TTITLE11=Oriente
TTITLE12=Flavia
TTITLE13=Quisiera yo tener
TTITLE14=To be with you
TTITLE15=Mercy
EXTD=YEAR: 2005
EXTT0=
EXTT1=
EXTT2=
EXTT3=
EXTT4=
EXTT5=
EXTT6=
EXTT7=
EXTT8=
EXTT9=
EXTT10=
EXTT11=
EXTT12=
EXTT13=
EXTT14=
EXTT15=
PLAYORDER=
